<?xml version="1.0" standalone="no"?><svg xmlns="http://www.w3.org/2000/svg" viewBox="0 0 1440 320"><path fill="#ffffff" fill-opacity="1" d="M0,128L10.4,122.7C20.9,117,42,107,63,128C83.5,149,104,203,125,186.7C146.1,171,167,85,188,64C208.7,43,230,85,250,112C271.3,139,292,149,313,138.7C333.9,128,355,96,376,96C396.5,96,417,128,438,165.3C459.1,203,480,245,501,250.7C521.7,256,543,224,563,197.3C584.3,171,605,149,626,149.3C647,149,668,171,689,154.7C709.6,139,730,85,751,106.7C772.2,128,793,224,814,250.7C834.8,277,856,235,877,229.3C897.4,224,918,256,939,229.3C960,203,981,117,1002,117.3C1022.6,117,1043,203,1064,229.3C1085.2,256,1106,224,1127,213.3C1147.8,203,1169,213,1190,181.3C1210.4,149,1231,75,1252,37.3C1273,0,1294,0,1315,42.7C1335.7,85,1357,171,1377,176C1398.3,181,1419,107,1430,69.3L1440,32L1440,320L1429.6,320C1419.1,320,1398,320,1377,320C1356.5,320,1336,320,1315,320C1293.9,320,1273,320,1252,320C1231.3,320,1210,320,1190,320C1168.7,320,1148,320,1127,320C1106.1,320,1085,320,1064,320C1043.5,320,1023,320,1002,320C980.9,320,960,320,939,320C918.3,320,897,320,877,320C855.7,320,835,320,814,320C793,320,772,320,751,320C730.4,320,710,320,689,320C667.8,320,647,320,626,320C605.2,320,584,320,563,320C542.6,320,522,320,501,320C480,320,459,320,438,320C417.4,320,397,320,376,320C354.8,320,334,320,313,320C292.2,320,271,320,250,320C229.6,320,209,320,188,320C167,320,146,320,125,320C104.3,320,83,320,63,320C41.7,320,21,320,10,320L0,320Z"></path></svg>