<svg xmlns="http://www.w3.org/2000/svg" viewBox="0 0 1440 320">
    <path fill="#ffffff" fill-opacity="1"
        d="M0,256L24,218.7C48,181,96,107,144,80C192,53,240,75,288,112C336,149,384,203,432,202.7C480,203,528,149,576,149.3C624,149,672,203,720,218.7C768,235,816,213,864,192C912,171,960,149,1008,138.7C1056,128,1104,128,1152,144C1200,160,1248,192,1296,176C1344,160,1392,96,1416,64L1440,32L1440,320L1416,320C1392,320,1344,320,1296,320C1248,320,1200,320,1152,320C1104,320,1056,320,1008,320C960,320,912,320,864,320C816,320,768,320,720,320C672,320,624,320,576,320C528,320,480,320,432,320C384,320,336,320,288,320C240,320,192,320,144,320C96,320,48,320,24,320L0,320Z">
    </path>
</svg>